# xmcd
# Copyright (C) 1995-1998 Ti Kan
#
# Track frame offsets:
#       150
#       9526
#       24228
#       45316
#       63732
#       84977
#       114770
#       138854
#       159900
#       188861
#       215953
#       238319
#
# Disc length: 3393 seconds
#
# Revision: 0
# Processed by: cddbd v1.5.2PL0 Copyright (c) Steve Scherf et al.
# Submitted via: CD-Import v1.0
#
DISCID=970d3f0c
DTITLE=Alice Russell - My Favourite Letters
DYEAR=2005
DGENRE=
TTITLE0=All Else Can Wait
TTITLE1=What We Want!
TTITLE2=Humankind
TTITLE3=Mean To Me
TTITLE4=A Fly In The Hand
TTITLE5=To Know This
TTITLE6=I´m Just Here 
TTITLE7=Munkaroo
TTITLE8=All Over Now
TTITLE9=High Up On The Hook
TTITLE10=Mirror Mirror On The Wolf `tell The Story Right`
TTITLE11=Remember To Forget 
EXTD=
EXTT0=
EXTT1=
EXTT2=
EXTT3=
EXTT4=
EXTT5=
EXTT6=
EXTT7=
EXTT8=
EXTT9=
EXTT10=
EXTT11=
PLAYORDER=
